<svg width="96" height="28" viewBox="0 0 96 28" fill="none" xmlns="http://www.w3.org/2000/svg">
<rect x="0.25" y="0.25" width="95.5" height="27.5" rx="5.75" fill="#1E1E1E" stroke="white" stroke-width="0.5"/>
<path fill-rule="evenodd" clip-rule="evenodd" d="M14.0334 8.23502C15.0546 8.24542 16.0243 7.79212 16.6642 7.00515C17.3238 6.22224 17.6488 5.21594 17.5701 4.19995C16.5624 4.3046 15.6315 4.7808 14.963 5.53368C14.3029 6.27649 13.9684 7.24828 14.0334 8.23502ZM21.2571 17.0418C19.8203 16.4409 18.886 15.0489 18.8844 13.5064C18.9021 12.1431 19.625 10.8837 20.7998 10.1697C20.0553 9.11841 18.8531 8.4758 17.5558 8.43566C16.7209 8.34902 15.9016 8.67051 15.232 8.93326C14.807 9.10006 14.4422 9.24318 14.1722 9.24318C13.8649 9.24318 13.4897 9.09418 13.0693 8.92722C12.5196 8.7089 11.8926 8.45989 11.2392 8.47318C9.72194 8.52165 8.34175 9.35389 7.60359 10.6654C6.03163 13.3563 7.20417 17.3111 8.70997 19.4862C9.46335 20.5513 10.3438 21.7411 11.4959 21.6989C12.0186 21.6774 12.3894 21.5231 12.7724 21.3637C13.2157 21.1793 13.6753 20.9881 14.4053 20.9881C15.0936 20.9881 15.5335 21.1733 15.9556 21.3511C16.3603 21.5216 16.7487 21.6852 17.324 21.672C18.5338 21.6526 19.296 20.6022 20.0229 19.527C20.5643 18.7681 20.9808 17.9293 21.2571 17.0418Z" fill="white"/>
<path fill-rule="evenodd" clip-rule="evenodd" d="M55.3228 20.3533C54.2018 20.3533 53.3815 19.7873 53.287 18.9253L51.9826 18.9253C52.0649 20.4975 53.3399 21.4922 55.2283 21.4922C57.2466 21.4922 58.5156 20.4736 58.5156 18.8473C58.5156 17.5759 57.7897 16.8595 56.0426 16.4377L55.1044 16.2025C54.0069 15.9257 53.5582 15.5641 53.5582 14.9495C53.5582 14.1784 54.2607 13.6486 55.2873 13.6486C56.3138 13.6486 57.0163 14.1723 57.0933 15.0397H58.3797C58.3382 13.5399 57.1047 12.5098 55.3054 12.5098C53.4873 12.5098 52.2069 13.5399 52.2069 15.0397C52.2069 16.2511 52.9328 16.9976 54.4964 17.3831L55.6 17.6545C56.7036 17.9314 57.1696 18.3354 57.1696 19.0101C57.1696 19.7873 56.3969 20.3533 55.3228 20.3533ZM33.1214 18.9978H29.8757L29.0962 21.3473H27.7214L30.7958 12.6547H32.2241L35.2984 21.3473H33.9002L33.1214 18.9978ZM30.2121 17.9136H32.7849L31.5166 14.1005H31.4811L30.2121 17.9136ZM39.3474 21.4136C40.9057 21.4136 41.9382 20.1483 41.9382 18.1788C41.9382 16.2149 40.8996 14.9434 39.324 14.9434C38.5132 14.9167 37.7537 15.3472 37.3472 16.0638H37.3237V15.0097H36.0902V23.4439H37.3646V20.3048H37.3941C37.7833 21.026 38.542 21.4566 39.3474 21.4136ZM40.6281 18.1788C40.6281 16.8957 39.9786 16.0522 38.9875 16.0522C38.0138 16.0522 37.3589 16.9135 37.3589 18.1788C37.3589 19.4558 38.0138 20.311 38.9875 20.311C39.9786 20.311 40.6281 19.4736 40.6281 18.1788ZM46.1804 21.4136C47.7387 21.4136 48.7713 20.1483 48.7713 18.1788C48.7713 16.2149 47.7327 14.9434 46.157 14.9434C45.3462 14.9167 44.5867 15.3472 44.1802 16.0638H44.1567V15.0097H42.9233V23.4439H44.1976V20.3048H44.2271C44.6163 21.026 45.375 21.4566 46.1804 21.4136ZM47.4612 18.1788C47.4612 16.8957 46.8116 16.0522 45.8205 16.0522C44.8469 16.0522 44.192 16.9135 44.192 18.1788C44.192 19.4558 44.8469 20.311 45.8205 20.311C46.8116 20.311 47.4612 19.4736 47.4612 18.1788ZM61.2655 13.5099V15.0097H62.4461V16.0399H61.2655V19.5337C61.2655 20.0765 61.5019 20.3294 62.0209 20.3294C62.161 20.3269 62.301 20.3169 62.4401 20.2993V21.3234C62.2068 21.3679 61.9696 21.388 61.7323 21.3835C60.4754 21.3835 59.9852 20.9016 59.9852 19.6725V16.0399H59.0825V15.0097H59.9852V13.5099H61.2655ZM66.0743 14.9318C64.2803 14.9318 63.1299 16.1848 63.1299 18.1788C63.1299 20.1784 64.2689 21.4259 66.0743 21.4259C67.8803 21.4259 69.0194 20.1784 69.0194 18.1788C69.0194 16.1848 67.8743 14.9318 66.0743 14.9318ZM67.7212 18.1788C67.7212 16.811 67.1072 16.0037 66.0746 16.0037C65.042 16.0037 64.4286 16.8171 64.4286 18.1788C64.4286 19.5522 65.042 20.3534 66.0746 20.3534C67.1072 20.3534 67.7212 19.5522 67.7212 18.1788ZM71.286 15.0097H70.0706L70.0706 21.3473H71.345V17.5882C71.3025 17.2079 71.425 16.8277 71.6803 16.5473C71.9356 16.267 72.2982 16.1146 72.6729 16.1301C72.8666 16.1243 73.06 16.1509 73.2454 16.2087V14.9919C73.1021 14.9591 72.9557 14.9429 72.8088 14.9434C72.1083 14.9161 71.485 15.394 71.3155 16.0884H71.286V15.0097ZM79.1202 19.4859C78.9488 20.6364 77.8513 21.4259 76.447 21.4259C74.641 21.4259 73.52 20.1907 73.52 18.2089C73.52 16.221 74.647 14.9318 76.3935 14.9318C78.1111 14.9318 79.1912 16.1363 79.1912 18.0578V18.5036H74.8064V18.5822C74.7655 19.054 74.9251 19.521 75.2446 19.8645C75.5641 20.2079 76.0128 20.3947 76.4765 20.3773C77.0949 20.4364 77.6779 20.0739 77.9102 19.4859L79.1202 19.4859ZM77.9168 17.5944L74.813 17.5944C74.8119 17.1665 74.9783 16.7559 75.2752 16.4538C75.5721 16.1518 75.9749 15.9833 76.3941 15.9859C76.8099 15.9768 77.2106 16.1451 77.4997 16.4505C77.7888 16.7558 77.9399 17.1704 77.9168 17.5944Z" fill="white"/>
<path fill-rule="evenodd" clip-rule="evenodd" d="M30.0149 6.47728H30.5725C30.7665 6.50149 30.9619 6.44332 31.1112 6.31686C31.2606 6.19039 31.3503 6.00715 31.3587 5.81146C31.3587 5.42626 31.0694 5.17743 30.5786 5.17743C30.3799 5.14963 30.1785 5.20343 30.02 5.32663C29.8615 5.44983 29.7595 5.63196 29.7371 5.83163H29.1248C29.1461 5.46897 29.3169 5.13147 29.5963 4.89983C29.8758 4.66819 30.2387 4.56323 30.5984 4.61005C31.4195 4.61005 31.9976 5.07044 31.9976 5.73319C32.0016 6.19072 31.6859 6.58883 31.24 6.68851V6.73773C31.774 6.76145 32.1885 7.21281 32.1675 7.74774C32.1292 8.12091 31.9424 8.46289 31.6494 8.69652C31.3563 8.93015 30.9817 9.03575 30.61 8.98949C30.2375 9.04036 29.8603 8.93748 29.565 8.70445C29.2696 8.47141 29.0815 8.12822 29.0436 7.75356H29.6654C29.703 8.15312 30.0695 8.41086 30.61 8.41086C31.1506 8.41086 31.5034 8.12136 31.5034 7.71325C31.5034 7.29933 31.1711 7.04435 30.5902 7.04435H30.0149V6.47728ZM32.8739 7.99691C32.8739 7.42953 33.2964 7.10243 34.0444 7.05594L34.8969 7.00673V6.73466C34.8969 6.40174 34.6778 6.21376 34.2526 6.21376C33.9059 6.21376 33.6663 6.34125 33.5967 6.5641H32.9954C33.0589 6.02269 33.568 5.67543 34.282 5.67543C35.071 5.67543 35.516 6.06883 35.516 6.73466V8.88832H34.9174V8.44535H34.8682C34.6652 8.76884 34.3041 8.9579 33.923 8.94025C33.6558 8.96809 33.3893 8.88143 33.1895 8.70169C32.9896 8.52196 32.875 8.26594 32.8739 7.99691ZM34.8971 7.46405V7.72757C34.8835 7.92847 34.7891 8.11525 34.6355 8.24514C34.4818 8.37503 34.2822 8.43692 34.0821 8.41663C33.7443 8.41663 33.4986 8.25154 33.4986 7.96785C33.4986 7.68998 33.6951 7.54232 34.1285 7.51327L34.8971 7.46405ZM37.164 6.2599V8.88831H36.543V5.73626H38.6151V6.25986L37.164 6.2599ZM41.0792 8.94027C41.8736 8.94027 42.3794 8.31239 42.3794 7.31093C42.3794 6.30911 41.8736 5.68397 41.073 5.68399C40.6622 5.67386 40.2805 5.89529 40.0848 6.25719H40.0383V5.73627H39.4405V9.93627H40.0615V8.41083H40.1107C40.3032 8.76098 40.681 8.96751 41.0792 8.94027ZM41.7406 7.31093C41.7406 6.64511 41.426 6.24281 40.8997 6.24281C40.377 6.24281 40.05 6.65365 40.05 7.31366C40.05 7.9706 40.3769 8.38178 40.897 8.38178C41.426 8.38177 41.7406 7.97948 41.7406 7.31093ZM43.2069 9.48168V10.0173C43.2649 10.0258 43.4124 10.0316 43.4642 10.0316C44.1058 10.0316 44.4034 9.78553 44.6723 9.01854L45.8455 5.73626H45.1869L44.4007 8.23992H44.3515L43.5625 5.73626H42.8861L44.0252 8.89993L43.9788 9.0534C43.929 9.32403 43.6836 9.51362 43.4096 9.4933C43.3419 9.49411 43.2741 9.49023 43.2069 9.48168ZM46.3289 7.99383H46.9472C47.008 8.27173 47.268 8.41663 47.6318 8.41663C48.0454 8.41663 48.2993 8.23411 48.2993 7.95043C48.2993 7.64658 48.0713 7.50165 47.6318 7.50165H47.1608V7.01835H47.6236C47.999 7.01835 48.1901 6.87378 48.1901 6.61025C48.1901 6.37885 48.0051 6.20215 47.6236 6.20215C47.2762 6.20215 47.0223 6.34981 46.982 6.59864H46.3835C46.4765 6.00383 47.0281 5.59324 47.6236 5.67545C48.3716 5.67545 48.7996 6.01417 48.7996 6.54669C48.8068 6.85229 48.5996 7.12131 48.3027 7.192V7.24122C48.6578 7.28709 48.9223 7.59189 48.9183 7.95045C48.9183 8.54965 48.4092 8.9461 47.6318 8.9461C46.9445 8.94608 46.3862 8.6306 46.3289 7.99383ZM49.813 5.73626V8.88833H50.4286L51.8817 6.70869H51.9281V8.88832L52.5438 8.88833V5.73626L51.9281 5.73627L50.4778 7.90429H50.4286V5.73626H49.813ZM55.9352 6.2599H54.9442V8.88831H54.3224V6.2599H53.3314V5.7363H55.9352V6.2599ZM57.9166 8.94915C58.5318 9.01576 59.1063 8.63174 59.281 8.03724L58.6824 8.03722C58.5335 8.30476 58.238 8.45571 57.9344 8.41935C57.7 8.42219 57.4753 8.32573 57.3156 8.15376C57.156 7.98179 57.0764 7.7503 57.0963 7.51635V7.48149H59.3185V7.26442C59.3185 6.27462 58.7896 5.67542 57.9139 5.67542C57.4932 5.67182 57.0916 5.85124 56.8132 6.16719C56.5348 6.48314 56.407 6.90453 56.4629 7.3222C56.4055 7.7387 56.5338 8.15942 56.8137 8.47272C57.0937 8.78603 57.497 8.96024 57.9166 8.94915ZM57.0962 7.02142H58.6851C58.701 6.80761 58.626 6.59703 58.4786 6.44154C58.3312 6.28605 58.1251 6.2001 57.9111 6.20487C57.694 6.20191 57.485 6.287 57.3315 6.44079C57.178 6.59458 57.0931 6.804 57.0962 7.02142ZM63.3333 5.73626H61.9144V8.8883H63.3477C64.0384 8.8883 64.4513 8.52941 64.4513 7.97946C64.4559 7.59643 64.16 7.27695 63.7783 7.2528V7.20358C64.0903 7.13522 64.312 6.8576 64.31 6.53776C64.31 6.04866 63.949 5.73626 63.3333 5.73626ZM62.5298 6.21375V7.02995H63.1454C63.5208 7.02995 63.7003 6.88537 63.7003 6.61877C63.7003 6.37302 63.544 6.21375 63.2144 6.21375H62.5298ZM62.5298 8.41083V7.48729L63.1884 7.4873C63.6075 7.4873 63.83 7.63496 63.83 7.95043C63.83 8.24848 63.6335 8.41083 63.2663 8.41083H62.5298Z" fill="white"/>
</svg>
