<svg width="132" height="132" viewBox="0 0 132 132" fill="none" xmlns="http://www.w3.org/2000/svg">
<rect width="132" height="132" fill="#382C6A"/>
<path fill-rule="evenodd" clip-rule="evenodd" d="M102 66C102 61.2724 101.069 56.5911 99.2597 52.2234C97.4505 47.8557 94.7988 43.887 91.4559 40.5441C88.113 37.2012 84.1444 34.5495 79.7766 32.7403C75.4089 30.9312 70.7277 30 66.0001 30C61.3634 30 56.7681 30.8958 52.4674 32.6404C47.9487 34.4734 43.8496 37.2054 40.4186 40.6704C36.9876 44.1355 34.2964 48.2615 32.5081 52.7981C30.8497 57.0052 30 61.4842 30 66C30 70.7276 30.9312 75.4089 32.7403 79.7766C34.5495 84.1443 37.2012 88.1129 40.5441 91.4559C43.887 94.7988 47.8556 97.4505 52.2233 99.2597C56.5911 101.069 61.2723 102 65.9999 102C70.7275 102 75.4088 101.069 79.7765 99.2596C84.1442 97.4504 88.1128 94.7987 91.4557 91.4558C94.7986 88.1129 97.4503 84.1443 99.2595 79.7765C101.069 75.4088 102 70.7275 102 66ZM65.9999 77.4198L65.9999 81.998V89.6814L78.5874 75.8738C79.4837 74.7311 80.2221 73.4694 80.7802 72.1221C81.5841 70.1812 81.9979 68.1008 81.9979 66H85.6984C85.6984 63.4131 85.1889 60.8516 84.1989 58.4617C83.209 56.0718 81.758 53.9003 79.9289 52.0711C78.0997 50.242 75.9282 48.791 73.5383 47.8011C71.1484 46.8111 68.5869 46.3016 66.0001 46.3016V42.0332C62.9132 42.0332 59.8539 42.6295 56.9907 43.791C53.9824 45.0113 51.2534 46.8301 48.9692 49.1369C46.6851 51.4438 44.8934 54.1907 43.7029 57.2109C42.5988 60.0118 42.0331 62.9936 42.0331 66H54.5801C54.5801 67.4997 54.8755 68.9847 55.4494 70.3702C56.0233 71.7557 56.8645 73.0146 57.9249 74.075C58.9853 75.1355 60.2442 75.9767 61.6298 76.5505C63.0153 77.1244 64.5002 77.4198 65.9999 77.4198Z" fill="url(#paint0_angular)"/>
<defs>
<radialGradient id="paint0_angular" cx="0" cy="0" r="1" gradientUnits="userSpaceOnUse" gradientTransform="translate(66 66) rotate(90) scale(36)">
<stop stop-color="#1EC6FF"/>
<stop offset="0.265625" stop-color="#7CDD61"/>
<stop offset="0.552083" stop-color="#FFE123"/>
<stop offset="0.828125" stop-color="#FF5468"/>
<stop offset="1" stop-color="#382C6A"/>
</radialGradient>
</defs>
</svg>
