<svg width="220" height="105" viewBox="0 0 220 105" fill="none" xmlns="http://www.w3.org/2000/svg">
<path fill-rule="evenodd" clip-rule="evenodd" d="M137.177 27.1764C137.177 23.6076 136.474 20.0737 135.108 16.7765C133.742 13.4793 131.74 10.4834 129.217 7.95979C126.693 5.43623 123.697 3.43443 120.4 2.06868C117.103 0.702939 113.569 0 110 0C106.5 -1.77193e-05 103.031 0.676232 99.7844 1.99323C96.3733 3.37699 93.2788 5.43933 90.6887 8.05513C88.0987 10.6709 86.0671 13.7857 84.7171 17.2103C83.4652 20.3863 82.8238 23.7675 82.8238 27.1765C82.8238 30.7454 83.5267 34.2793 84.8924 37.5765C86.2582 40.8737 88.26 43.8696 90.7835 46.3931C93.3071 48.9167 96.303 50.9185 99.6002 52.2843C102.897 53.65 106.431 54.3529 110 54.3529C113.569 54.3529 117.103 53.6499 120.4 52.2842C123.697 50.9184 126.693 48.9166 129.217 46.3931C131.74 43.8695 133.742 40.8736 135.108 37.5764C136.474 34.2792 137.177 30.7453 137.177 27.1764ZM110 35.7973L110 39.2534V45.0536L119.502 34.6302C120.179 33.7676 120.737 32.8151 121.158 31.7981C121.765 30.3328 122.077 28.7624 122.077 27.1764H124.871C124.871 25.2236 124.486 23.29 123.739 21.4858C122.991 19.6817 121.896 18.0424 120.515 16.6615C119.134 15.2807 117.495 14.1854 115.691 13.4381C113.887 12.6908 111.953 12.3061 110 12.3061V9.08387C107.67 9.08386 105.36 9.53403 103.199 10.4108C100.928 11.3321 98.868 12.705 97.1436 14.4465C95.4193 16.188 94.0668 18.2616 93.168 20.5416C92.3346 22.656 91.9075 24.9069 91.9076 27.1765H101.379C101.379 28.3086 101.602 29.4296 102.036 30.4755C102.469 31.5215 103.104 32.4718 103.904 33.2723C104.705 34.0729 105.655 34.7079 106.701 35.1411C107.747 35.5743 108.868 35.7973 110 35.7973Z" fill="url(#paint0_angular)"/>
<path d="M14.8745 76.4359C17.0386 76.4359 18.915 76.8567 20.5038 77.6985C22.0927 78.513 23.298 79.6942 24.1198 81.2419C24.9689 82.7624 25.3935 84.5409 25.3935 86.5773C25.3935 88.668 24.8457 90.5144 23.7499 92.1164C22.6816 93.6912 21.1887 94.9267 19.2712 95.8227C17.381 96.6916 15.2443 97.126 12.8611 97.126C8.9439 97.126 5.82107 95.9177 3.49264 93.5012C1.16421 91.0846 0 87.4598 0 82.6266C0 73.5577 4.0542 68.263 12.1626 66.7425L22.9692 64.7061L24.0376 71.1819L14.6691 72.9332C12.2859 73.3677 10.5327 74.0736 9.40958 75.0511C8.31385 76.0014 7.65641 77.3862 7.43727 79.2054C9.43697 77.3591 11.9161 76.4359 14.8745 76.4359ZM12.9022 91.2611C14.2993 91.2611 15.395 90.8131 16.1894 89.917C17.0112 89.021 17.4221 87.9078 17.4221 86.5773C17.4221 85.1654 17.0112 84.0657 16.1894 83.2783C15.3676 82.4637 14.2719 82.0564 12.9022 82.0564C11.5052 82.0564 10.382 82.4637 9.53285 83.2783C8.71105 84.0929 8.30015 85.2061 8.30015 86.618C8.30015 87.9756 8.72475 89.0889 9.57394 89.9578C10.4231 90.8266 11.5326 91.2611 12.9022 91.2611Z" fill="#382C6A"/>
<path d="M52.2955 74.4809V92.5237C52.2955 96.6237 51.1861 99.6919 48.9673 101.728C46.7758 103.792 43.6119 104.824 39.4755 104.824C37.3114 104.824 35.2843 104.579 33.3942 104.091C31.5314 103.602 29.9426 102.882 28.6278 101.932L31.463 96.5151C32.3395 97.2482 33.4353 97.8184 34.7502 98.2257C36.0924 98.6601 37.421 98.8773 38.7359 98.8773C40.7082 98.8773 42.16 98.4293 43.0914 97.5333C44.0228 96.6373 44.4885 95.3068 44.4885 93.5419V93.0531C42.8175 94.628 40.7356 95.4154 38.2428 95.4154C35.3665 95.4154 33.0655 94.5737 31.3397 92.8902C29.6413 91.2068 28.7921 88.6816 28.7921 85.3147V74.4809H36.5992V84.0521C36.5992 85.7356 36.9142 86.9574 37.5443 87.7177C38.1743 88.478 39.092 88.8581 40.2973 88.8581C41.53 88.8581 42.5298 88.4237 43.2969 87.5548C44.0913 86.6859 44.4885 85.3826 44.4885 83.6448V74.4809H52.2955Z" fill="#382C6A"/>
<path d="M81.1563 74.4809V92.5237C81.1563 96.6237 80.0332 99.6919 77.787 101.728C75.5407 103.792 72.3083 104.824 68.0898 104.824C65.8983 104.824 63.8438 104.579 61.9263 104.091C60.0088 103.602 58.3789 102.882 57.0366 101.932L59.8718 96.5151C60.7758 97.2482 61.9126 97.8184 63.2823 98.2257C64.6793 98.6601 66.049 98.8773 67.3912 98.8773C69.4457 98.8773 70.9524 98.4293 71.9111 97.5333C72.8699 96.6373 73.3493 95.3068 73.3493 93.5419V92.8088C71.8426 94.5465 69.6375 95.4154 66.7338 95.4154C64.7615 95.4154 62.9398 94.981 61.2689 94.1121C59.5979 93.2161 58.2693 91.9671 57.2831 90.3651C56.297 88.7359 55.8039 86.8624 55.8039 84.7445C55.8039 82.6538 56.297 80.8074 57.2831 79.2054C58.2693 77.5763 59.5979 76.3273 61.2689 75.4584C62.9398 74.5624 64.7615 74.1144 66.7338 74.1144C69.9114 74.1144 72.2398 75.1326 73.7191 77.169V74.4809H81.1563ZM68.5829 89.2654C69.9799 89.2654 71.1304 88.8445 72.0344 88.0028C72.9658 87.1611 73.4315 86.075 73.4315 84.7445C73.4315 83.414 72.9795 82.3415 72.0755 81.527C71.1715 80.6852 70.0073 80.2644 68.5829 80.2644C67.1584 80.2644 65.9805 80.6852 65.0491 81.527C64.1451 82.3415 63.6932 83.414 63.6932 84.7445C63.6932 86.075 64.1588 87.1611 65.0902 88.0028C66.0216 88.8445 67.1858 89.2654 68.5829 89.2654Z" fill="#382C6A"/>
<path d="M97.1856 97.2075C89.6798 97.2075 85.9269 94.0714 85.9269 87.7992V74.4809H93.6929V81.4862C94.2956 81.1061 95.1037 80.7938 96.1172 80.5495C97.1582 80.3051 98.3361 80.1829 99.651 80.1829C102.445 80.1829 104.637 80.8753 106.225 82.2601C107.842 83.6177 108.65 85.6405 108.65 88.3286C108.65 91.2339 107.622 93.4469 105.568 94.9674C103.541 96.4608 100.747 97.2075 97.1856 97.2075ZM97.1445 91.9127C98.295 91.9127 99.1716 91.6141 99.7742 91.0167C100.377 90.3922 100.678 89.5505 100.678 88.4915C100.678 87.4598 100.377 86.6723 99.7742 86.1293C99.199 85.5591 98.3635 85.274 97.2677 85.274C96.4733 85.274 95.7611 85.4097 95.1311 85.6813C94.5284 85.9528 94.049 86.3194 93.6929 86.7809V88.4915C93.6929 89.5776 93.9806 90.4194 94.5558 91.0167C95.1585 91.6141 96.0214 91.9127 97.1445 91.9127Z" fill="#382C6A"/>
<path d="M135.769 74.4809V92.5237C135.769 96.6237 134.646 99.6919 132.4 101.728C130.153 103.792 126.921 104.824 122.702 104.824C120.511 104.824 118.456 104.579 116.539 104.091C114.621 103.602 112.991 102.882 111.649 101.932L114.484 96.5151C115.388 97.2482 116.525 97.8184 117.895 98.2257C119.292 98.6601 120.662 98.8773 122.004 98.8773C124.058 98.8773 125.565 98.4293 126.524 97.5333C127.483 96.6373 127.962 95.3068 127.962 93.5419V92.8088C126.455 94.5465 124.25 95.4154 121.346 95.4154C119.374 95.4154 117.552 94.981 115.881 94.1121C114.21 93.2161 112.882 91.9671 111.896 90.3651C110.91 88.7359 110.417 86.8624 110.417 84.7445C110.417 82.6538 110.91 80.8074 111.896 79.2054C112.882 77.5763 114.21 76.3273 115.881 75.4584C117.552 74.5624 119.374 74.1144 121.346 74.1144C124.524 74.1144 126.852 75.1326 128.332 77.169V74.4809H135.769ZM123.195 89.2654C124.593 89.2654 125.743 88.8445 126.647 88.0028C127.578 87.1611 128.044 86.075 128.044 84.7445C128.044 83.414 127.592 82.3415 126.688 81.527C125.784 80.6852 124.62 80.2644 123.195 80.2644C121.771 80.2644 120.593 80.6852 119.662 81.527C118.758 82.3415 118.306 83.414 118.306 84.7445C118.306 86.075 118.771 87.1611 119.703 88.0028C120.634 88.8445 121.798 89.2654 123.195 89.2654Z" fill="#382C6A"/>
<path d="M151.963 96.9224C149.579 96.9224 147.429 96.4336 145.511 95.4561C143.594 94.4786 142.087 93.121 140.992 91.3833C139.923 89.6455 139.389 87.677 139.389 85.4776C139.389 83.3054 139.923 81.3505 140.992 79.6127C142.087 77.875 143.58 76.5309 145.47 75.5806C147.388 74.6031 149.552 74.1144 151.963 74.1144C154.373 74.1144 156.537 74.6031 158.455 75.5806C160.372 76.5309 161.865 77.875 162.934 79.6127C164.002 81.3233 164.536 83.2783 164.536 85.4776C164.536 87.677 164.002 89.6455 162.934 91.3833C161.865 93.121 160.372 94.4786 158.455 95.4561C156.537 96.4336 154.373 96.9224 151.963 96.9224ZM151.963 90.7723C153.332 90.7723 154.455 90.3108 155.332 89.3876C156.208 88.4372 156.647 87.1339 156.647 85.4776C156.647 83.8485 156.208 82.5723 155.332 81.6491C154.455 80.726 153.332 80.2644 151.963 80.2644C150.593 80.2644 149.47 80.726 148.593 81.6491C147.717 82.5723 147.278 83.8485 147.278 85.4776C147.278 87.1339 147.717 88.4372 148.593 89.3876C149.47 90.3108 150.593 90.7723 151.963 90.7723Z" fill="#382C6A"/>
<path d="M181.963 76.4359C184.127 76.4359 186.003 76.8567 187.592 77.6985C189.181 78.513 190.386 79.6942 191.208 81.2419C192.057 82.7624 192.482 84.5409 192.482 86.5773C192.482 88.668 191.934 90.5144 190.838 92.1164C189.77 93.6912 188.277 94.9267 186.359 95.8227C184.469 96.6916 182.332 97.126 179.949 97.126C176.032 97.126 172.909 95.9177 170.581 93.5012C168.252 91.0846 167.088 87.4598 167.088 82.6266C167.088 73.5577 171.142 68.263 179.251 66.7425L190.057 64.7061L191.126 71.1819L181.757 72.9332C179.374 73.3677 177.621 74.0736 176.498 75.0511C175.402 76.0014 174.745 77.3862 174.525 79.2054C176.525 77.3591 179.004 76.4359 181.963 76.4359ZM179.99 91.2611C181.387 91.2611 182.483 90.8131 183.278 89.917C184.099 89.021 184.51 87.9078 184.51 86.5773C184.51 85.1654 184.099 84.0657 183.278 83.2783C182.456 82.4637 181.36 82.0564 179.99 82.0564C178.593 82.0564 177.47 82.4637 176.621 83.2783C175.799 84.0929 175.388 85.2061 175.388 86.618C175.388 87.9756 175.813 89.0889 176.662 89.9578C177.511 90.8266 178.621 91.2611 179.99 91.2611Z" fill="#382C6A"/>
<path d="M208.002 74.1144C210.44 74.1144 212.563 74.5759 214.371 75.4991C216.179 76.4223 217.562 77.7528 218.521 79.4905C219.507 81.2011 220 83.2104 220 85.5184C220 87.7992 219.548 89.8084 218.644 91.5462C217.74 93.2568 216.466 94.5873 214.823 95.5376C213.179 96.4608 211.275 96.9224 209.111 96.9224C206.564 96.9224 204.564 96.1485 203.112 94.6008V104.457H195.305V85.5998C195.305 83.319 195.825 81.3097 196.866 79.572C197.907 77.8342 199.387 76.4902 201.304 75.5399C203.222 74.5895 205.454 74.1144 208.002 74.1144ZM207.632 90.7723C209.029 90.7723 210.152 90.2972 211.001 89.3468C211.878 88.3694 212.316 87.0932 212.316 85.5184C212.316 83.9435 211.878 82.6809 211.001 81.7306C210.152 80.7531 209.029 80.2644 207.632 80.2644C206.235 80.2644 205.112 80.7531 204.263 81.7306C203.413 82.6809 202.989 83.9435 202.989 85.5184C202.989 87.1203 203.4 88.3965 204.221 89.3468C205.071 90.2972 206.207 90.7723 207.632 90.7723Z" fill="#382C6A"/>
<defs>
<radialGradient id="paint0_angular" cx="0" cy="0" r="1" gradientUnits="userSpaceOnUse" gradientTransform="translate(110 27.1765) rotate(90) scale(27.1765)">
<stop stop-color="#1EC6FF"/>
<stop offset="0.265625" stop-color="#7CDD61"/>
<stop offset="0.552083" stop-color="#FFE123"/>
<stop offset="0.828125" stop-color="#FF5468"/>
<stop offset="1" stop-color="#382C6A"/>
</radialGradient>
</defs>
</svg>
