<svg width="478" height="72" viewBox="0 0 478 72" fill="none" xmlns="http://www.w3.org/2000/svg">
<path fill-rule="evenodd" clip-rule="evenodd" d="M72 36C72 31.2724 71.0688 26.5911 69.2597 22.2234C67.4505 17.8557 64.7988 13.887 61.4559 10.5441C58.113 7.20124 54.1444 4.5495 49.7766 2.74033C45.4089 0.931166 40.7277 0 36.0001 0C31.3634 -2.34723e-05 26.7681 0.895788 22.4674 2.64039C17.9487 4.47342 13.8496 7.20535 10.4186 10.6704C6.98761 14.1355 4.29636 18.2615 2.50811 22.7981C0.849731 27.0052 2.75043e-05 31.4842 3.36158e-05 36C3.32025e-05 40.7276 0.931164 45.4089 2.74033 49.7766C4.54949 54.1443 7.20123 58.1129 10.5441 61.4559C13.887 64.7988 17.8556 67.4505 22.2233 69.2597C26.5911 71.0688 31.2723 72 35.9999 72C40.7275 72 45.4088 71.0687 49.7765 69.2596C54.1442 67.4504 58.1128 64.7987 61.4557 61.4558C64.7986 58.1129 67.4503 54.1443 69.2595 49.7765C71.0686 45.4088 72 40.7275 72 36ZM35.9999 47.4198L35.9999 51.998V59.6814L48.5874 45.8738C49.4837 44.7311 50.2221 43.4694 50.7802 42.1221C51.5841 40.1812 51.9979 38.1008 51.9979 36H55.6984C55.6984 33.4131 55.1889 30.8516 54.1989 28.4617C53.209 26.0718 51.758 23.9003 49.9289 22.0711C48.0997 20.242 45.9282 18.791 43.5383 17.8011C41.1484 16.8111 38.5869 16.3016 36.0001 16.3016V12.0332C32.9132 12.0332 29.8539 12.6295 26.9907 13.791C23.9824 15.0113 21.2534 16.8301 18.9692 19.1369C16.6851 21.4438 14.8934 24.1907 13.7029 27.2109C12.5988 30.0118 12.0331 32.9936 12.0331 36H24.5801C24.5801 37.4997 24.8755 38.9847 25.4494 40.3702C26.0233 41.7557 26.8645 43.0146 27.9249 44.075C28.9853 45.1355 30.2442 45.9767 31.6298 46.5505C33.0153 47.1244 34.5002 47.4198 35.9999 47.4198Z" fill="url(#paint0_angular)"/>
<path d="M118.095 21.1389C121.892 21.1389 125.184 21.8837 127.971 23.3735C130.759 24.8153 132.873 26.9058 134.315 29.6451C135.805 32.3363 136.549 35.4841 136.549 39.0884C136.549 42.7888 135.588 46.0568 133.666 48.8922C131.792 51.6795 129.173 53.8661 125.809 55.452C122.493 56.9899 118.744 57.7588 114.563 57.7588C107.691 57.7588 102.212 55.6202 98.1274 51.3431C94.0425 47.066 92 40.6503 92 32.096C92 16.0447 99.1125 6.67349 113.338 3.98226L132.296 0.37793L134.171 11.8397L117.735 14.9394C113.554 15.7083 110.478 16.9578 108.508 18.6879C106.586 20.3699 105.432 22.8209 105.048 26.0407C108.556 22.7728 112.905 21.1389 118.095 21.1389ZM114.635 47.3783C117.086 47.3783 119.008 46.5854 120.402 44.9995C121.844 43.4136 122.565 41.4432 122.565 39.0884C122.565 36.5894 121.844 34.6431 120.402 33.2494C118.96 31.8077 117.038 31.0868 114.635 31.0868C112.184 31.0868 110.214 31.8077 108.724 33.2494C107.282 34.6911 106.561 36.6615 106.561 39.1605C106.561 41.5634 107.306 43.5337 108.796 45.0716C110.286 46.6094 112.232 47.3783 114.635 47.3783Z" fill="#382C6A"/>
<path d="M183.745 17.6787V49.613C183.745 56.8697 181.799 62.3003 177.906 65.9046C174.062 69.557 168.511 71.3831 161.254 71.3831C157.458 71.3831 153.901 70.9506 150.585 70.0856C147.318 69.2206 144.53 67.947 142.223 66.265L147.197 56.6775C148.735 57.9751 150.658 58.9843 152.964 59.7051C155.319 60.4741 157.65 60.8585 159.957 60.8585C163.417 60.8585 165.964 60.0656 167.598 58.4797C169.232 56.8938 170.049 54.5389 170.049 51.4152V50.5502C167.117 53.3375 163.465 54.7312 159.092 54.7312C154.046 54.7312 150.009 53.2414 146.981 50.2618C144.002 47.2822 142.512 42.8129 142.512 36.8537V17.6787H156.208V34.619C156.208 37.5986 156.761 39.7612 157.866 41.1068C158.972 42.4524 160.581 43.1252 162.696 43.1252C164.859 43.1252 166.613 42.3563 167.958 40.8185C169.352 39.2806 170.049 36.9739 170.049 33.8982V17.6787H183.745Z" fill="#382C6A"/>
<path d="M234.378 17.6787V49.613C234.378 56.8697 232.407 62.3003 228.467 65.9046C224.526 69.557 218.855 71.3831 211.454 71.3831C207.61 71.3831 204.005 70.9506 200.641 70.0856C197.277 69.2206 194.418 67.947 192.063 66.265L197.037 56.6775C198.623 57.9751 200.617 58.9843 203.02 59.7051C205.471 60.4741 207.874 60.8585 210.229 60.8585C213.833 60.8585 216.476 60.0656 218.158 58.4797C219.84 56.8938 220.681 54.5389 220.681 51.4152V50.1176C218.038 53.1933 214.169 54.7312 209.075 54.7312C205.615 54.7312 202.419 53.9622 199.488 52.4244C196.556 50.8385 194.225 48.6278 192.495 45.7924C190.765 42.909 189.9 39.593 189.9 35.8445C189.9 32.1441 190.765 28.8761 192.495 26.0407C194.225 23.1573 196.556 20.9466 199.488 19.4088C202.419 17.8229 205.615 17.0299 209.075 17.0299C214.65 17.0299 218.735 18.8321 221.33 22.4364V17.6787H234.378ZM212.319 43.8461C214.77 43.8461 216.789 43.1012 218.374 41.6114C220.008 40.1216 220.825 38.1993 220.825 35.8445C220.825 33.4897 220.032 31.5914 218.447 30.1497C216.861 28.6599 214.818 27.915 212.319 27.915C209.82 27.915 207.754 28.6599 206.12 30.1497C204.534 31.5914 203.741 33.4897 203.741 35.8445C203.741 38.1993 204.558 40.1216 206.192 41.6114C207.826 43.1012 209.868 43.8461 212.319 43.8461Z" fill="#382C6A"/>
<path d="M262.499 57.903C249.331 57.903 242.747 52.3523 242.747 41.251V17.6787H256.371V30.0776C257.429 29.4048 258.846 28.8521 260.624 28.4196C262.451 27.9871 264.517 27.7708 266.824 27.7708C271.726 27.7708 275.57 28.9963 278.358 31.4472C281.193 33.8501 282.611 37.4304 282.611 42.1881C282.611 47.3303 280.809 51.247 277.204 53.9382C273.648 56.5814 268.746 57.903 262.499 57.903ZM262.427 48.5317C264.445 48.5317 265.983 48.0031 267.04 46.9458C268.097 45.8405 268.626 44.3507 268.626 42.4765C268.626 40.6503 268.097 39.2566 267.04 38.2954C266.031 37.2862 264.565 36.7816 262.643 36.7816C261.249 36.7816 260 37.0219 258.894 37.5025C257.837 37.9831 256.996 38.6318 256.371 39.4488V42.4765C256.371 44.3988 256.876 45.8886 257.885 46.9458C258.942 48.0031 260.456 48.5317 262.427 48.5317Z" fill="#382C6A"/>
<path d="M330.188 17.6787V49.613C330.188 56.8697 328.218 62.3003 324.277 65.9046C320.336 69.557 314.665 71.3831 307.264 71.3831C303.42 71.3831 299.815 70.9506 296.451 70.0856C293.087 69.2206 290.228 67.947 287.873 66.265L292.847 56.6775C294.433 57.9751 296.427 58.9843 298.83 59.7051C301.281 60.4741 303.684 60.8585 306.039 60.8585C309.643 60.8585 312.286 60.0656 313.968 58.4797C315.65 56.8938 316.491 54.5389 316.491 51.4152V50.1176C313.848 53.1933 309.98 54.7312 304.886 54.7312C301.425 54.7312 298.23 53.9622 295.298 52.4244C292.367 50.8385 290.036 48.6278 288.306 45.7924C286.576 42.909 285.711 39.593 285.711 35.8445C285.711 32.1441 286.576 28.8761 288.306 26.0407C290.036 23.1573 292.367 20.9466 295.298 19.4088C298.23 17.8229 301.425 17.0299 304.886 17.0299C310.46 17.0299 314.545 18.8321 317.14 22.4364V17.6787H330.188ZM308.129 43.8461C310.58 43.8461 312.599 43.1012 314.185 41.6114C315.819 40.1216 316.636 38.1993 316.636 35.8445C316.636 33.4897 315.843 31.5914 314.257 30.1497C312.671 28.6599 310.628 27.915 308.129 27.915C305.63 27.915 303.564 28.6599 301.93 30.1497C300.344 31.5914 299.551 33.4897 299.551 35.8445C299.551 38.1993 300.368 40.1216 302.002 41.6114C303.636 43.1012 305.679 43.8461 308.129 43.8461Z" fill="#382C6A"/>
<path d="M358.597 57.3984C354.416 57.3984 350.644 56.5333 347.28 54.8033C343.916 53.0732 341.273 50.6703 339.35 47.5946C337.476 44.5189 336.539 41.0347 336.539 37.1421C336.539 33.2974 337.476 29.8373 339.35 26.7616C341.273 23.6859 343.892 21.3071 347.208 19.625C350.572 17.895 354.368 17.0299 358.597 17.0299C362.826 17.0299 366.623 17.895 369.987 19.625C373.351 21.3071 375.97 23.6859 377.844 26.7616C379.719 29.7892 380.656 33.2494 380.656 37.1421C380.656 41.0347 379.719 44.5189 377.844 47.5946C375.97 50.6703 373.351 53.0732 369.987 54.8033C366.623 56.5333 362.826 57.3984 358.597 57.3984ZM358.597 46.5133C361 46.5133 362.971 45.6963 364.508 44.0624C366.046 42.3803 366.815 40.0736 366.815 37.1421C366.815 34.2586 366.046 31.9999 364.508 30.3659C362.971 28.732 361 27.915 358.597 27.915C356.194 27.915 354.224 28.732 352.686 30.3659C351.148 31.9999 350.379 34.2586 350.379 37.1421C350.379 40.0736 351.148 42.3803 352.686 44.0624C354.224 45.6963 356.194 46.5133 358.597 46.5133Z" fill="#382C6A"/>
<path d="M411.228 21.1389C415.025 21.1389 418.317 21.8837 421.104 23.3735C423.892 24.8153 426.006 26.9058 427.448 29.6451C428.938 32.3363 429.683 35.4841 429.683 39.0884C429.683 42.7888 428.721 46.0568 426.799 48.8922C424.925 51.6795 422.306 53.8661 418.942 55.452C415.626 56.9899 411.877 57.7588 407.696 57.7588C400.824 57.7588 395.345 55.6202 391.26 51.3431C387.176 47.066 385.133 40.6503 385.133 32.096C385.133 16.0447 392.246 6.67349 406.471 3.98226L425.429 0.37793L427.304 11.8397L410.868 14.9394C406.687 15.7083 403.611 16.9578 401.641 18.6879C399.719 20.3699 398.565 22.8209 398.181 26.0407C401.689 22.7728 406.038 21.1389 411.228 21.1389ZM407.768 47.3783C410.219 47.3783 412.141 46.5854 413.535 44.9995C414.977 43.4136 415.698 41.4432 415.698 39.0884C415.698 36.5894 414.977 34.6431 413.535 33.2494C412.093 31.8077 410.171 31.0868 407.768 31.0868C405.317 31.0868 403.347 31.8077 401.857 33.2494C400.415 34.6911 399.695 36.6615 399.695 39.1605C399.695 41.5634 400.439 43.5337 401.929 45.0716C403.419 46.6094 405.365 47.3783 407.768 47.3783Z" fill="#382C6A"/>
<path d="M456.91 17.0299C461.188 17.0299 464.912 17.8469 468.084 19.4809C471.256 21.1148 473.683 23.4696 475.365 26.5453C477.095 29.573 477.96 33.1292 477.96 37.2141C477.96 41.251 477.167 44.8073 475.581 47.8829C473.995 50.9106 471.76 53.2654 468.877 54.9474C465.993 56.5814 462.653 57.3984 458.857 57.3984C454.387 57.3984 450.879 56.0287 448.332 53.2894V70.7344H434.636V37.3583C434.636 33.3215 435.549 29.7652 437.375 26.6895C439.201 23.6138 441.796 21.235 445.16 19.5529C448.524 17.8709 452.441 17.0299 456.91 17.0299ZM456.262 46.5133C458.713 46.5133 460.683 45.6723 462.173 43.9903C463.711 42.2602 464.479 40.0015 464.479 37.2141C464.479 34.4268 463.711 32.1921 462.173 30.5101C460.683 28.78 458.713 27.915 456.262 27.915C453.811 27.915 451.84 28.78 450.35 30.5101C448.861 32.1921 448.116 34.4268 448.116 37.2141C448.116 40.0495 448.837 42.3083 450.278 43.9903C451.768 45.6723 453.763 46.5133 456.262 46.5133Z" fill="#382C6A"/>
<defs>
<radialGradient id="paint0_angular" cx="0" cy="0" r="1" gradientUnits="userSpaceOnUse" gradientTransform="translate(36 36) rotate(90) scale(36)">
<stop stop-color="#1EC6FF"/>
<stop offset="0.265625" stop-color="#7CDD61"/>
<stop offset="0.552083" stop-color="#FFE123"/>
<stop offset="0.828125" stop-color="#FF5468"/>
<stop offset="1" stop-color="#382C6A"/>
</radialGradient>
</defs>
</svg>
