<svg width="95" height="28" viewBox="0 0 95 28" fill="none" xmlns="http://www.w3.org/2000/svg">
<path d="M91 28H3.5C1.54 28 0 26.46 0 24.5V3.5C0 1.54 1.54 0 3.5 0H91C92.96 0 94.5 1.54 94.5 3.5V24.5C94.5 26.39 92.96 28 91 28Z" fill="#1E1E1E"/>
<path d="M91 0.56C92.61 0.56 93.94 1.89 93.94 3.5V24.5C93.94 26.11 92.61 27.44 91 27.44H3.5C1.89 27.44 0.56 26.11 0.56 24.5V3.5C0.56 1.89 1.89 0.56 3.5 0.56H91ZM91 0H3.5C1.54 0 0 1.54 0 3.5V24.5C0 26.46 1.54 28 3.5 28H91C92.96 28 94.5 26.46 94.5 24.5V3.5C94.5 1.61 92.96 0 91 0Z" fill="#A6A6A6"/>
<path d="M47.6695 15.2595C45.9895 15.2595 44.6595 16.5195 44.6595 18.2695C44.6595 19.9495 45.9895 21.2795 47.6695 21.2795C49.3495 21.2795 50.6795 20.0195 50.6795 18.2695C50.6795 16.4495 49.3495 15.2595 47.6695 15.2595ZM47.6695 20.0195C46.7595 20.0195 45.9895 19.2495 45.9895 18.1995C45.9895 17.1495 46.7595 16.3795 47.6695 16.3795C48.5795 16.3795 49.3495 17.0795 49.3495 18.1995C49.3495 19.2495 48.5795 20.0195 47.6695 20.0195ZM41.1595 15.2595C39.4795 15.2595 38.1495 16.5195 38.1495 18.2695C38.1495 19.9495 39.4795 21.2795 41.1595 21.2795C42.8395 21.2795 44.1695 20.0195 44.1695 18.2695C44.1695 16.4495 42.8395 15.2595 41.1595 15.2595ZM41.1595 20.0195C40.2495 20.0195 39.4795 19.2495 39.4795 18.1995C39.4795 17.1495 40.2495 16.3795 41.1595 16.3795C42.0695 16.3795 42.8395 17.0795 42.8395 18.1995C42.8395 19.2495 42.0695 20.0195 41.1595 20.0195ZM33.3895 16.1695V17.4295H36.3995C36.3295 18.1295 36.0495 18.6895 35.6995 19.0395C35.2795 19.4595 34.5795 19.9495 33.3895 19.9495C31.4995 19.9495 30.0995 18.4795 30.0995 16.5895C30.0995 14.6995 31.5695 13.2295 33.3895 13.2295C34.3695 13.2295 35.1395 13.6495 35.6995 14.1395L36.6095 13.2295C35.8395 12.5295 34.8595 11.9695 33.4595 11.9695C30.9395 11.9695 28.7695 14.0695 28.7695 16.5895C28.7695 19.1095 30.9395 21.2095 33.4595 21.2095C34.8595 21.2095 35.8395 20.7895 36.6795 19.8795C37.5195 19.0395 37.7995 17.8495 37.7995 16.9395C37.7995 16.6595 37.7995 16.3795 37.7295 16.1695H33.3895ZM65.1695 17.1495C64.8895 16.4495 64.1895 15.2595 62.6495 15.2595C61.1095 15.2595 59.8495 16.4495 59.8495 18.2695C59.8495 19.9495 61.1095 21.2795 62.7895 21.2795C64.1195 21.2795 64.9595 20.4395 65.2395 19.9495L64.2595 19.2495C63.9095 19.7395 63.4895 20.0895 62.7895 20.0895C62.0895 20.0895 61.6695 19.8095 61.3195 19.1795L65.3095 17.4995L65.1695 17.1495ZM61.1095 18.1295C61.1095 17.0095 62.0195 16.3795 62.6495 16.3795C63.1395 16.3795 63.6295 16.6595 63.7695 17.0095L61.1095 18.1295ZM57.8195 20.9995H59.1495V12.2495H57.8195V20.9995ZM55.7195 15.8895C55.3695 15.5395 54.8095 15.1895 54.1095 15.1895C52.6395 15.1895 51.2395 16.5195 51.2395 18.1995C51.2395 19.8795 52.5695 21.1395 54.1095 21.1395C54.8095 21.1395 55.3695 20.7895 55.6495 20.4395H55.7195V20.8595C55.7195 21.9795 55.0895 22.6095 54.1095 22.6095C53.3395 22.6095 52.7795 22.0495 52.6395 21.5595L51.5195 22.0495C51.8695 22.8195 52.7095 23.7995 54.1795 23.7995C55.7195 23.7995 56.9795 22.8895 56.9795 20.7195V15.3995H55.7195V15.8895ZM54.1795 20.0195C53.2695 20.0195 52.4995 19.2495 52.4995 18.1995C52.4995 17.1495 53.2695 16.3795 54.1795 16.3795C55.0895 16.3795 55.7895 17.1495 55.7895 18.1995C55.7895 19.2495 55.0895 20.0195 54.1795 20.0195ZM71.2595 12.2495H68.1095V20.9995H69.4395V17.7095H71.2595C72.7295 17.7095 74.1295 16.6595 74.1295 14.9795C74.1295 13.2995 72.7295 12.2495 71.2595 12.2495ZM71.3295 16.4495H69.4395V13.4395H71.3295C72.3095 13.4395 72.8695 14.2795 72.8695 14.9095C72.7995 15.6795 72.2395 16.4495 71.3295 16.4495ZM79.3795 15.1895C78.3995 15.1895 77.4195 15.6095 77.0695 16.5195L78.2595 17.0095C78.5395 16.5195 78.9595 16.3795 79.4495 16.3795C80.1495 16.3795 80.7795 16.7995 80.8495 17.4995V17.5695C80.6395 17.4295 80.0795 17.2195 79.5195 17.2195C78.2595 17.2195 76.9995 17.9195 76.9995 19.1795C76.9995 20.3695 78.0495 21.1395 79.1695 21.1395C80.0795 21.1395 80.4995 20.7195 80.8495 20.2995H80.9195V20.9995H82.1795V17.6395C82.0395 16.0995 80.8495 15.1895 79.3795 15.1895ZM79.2395 20.0195C78.8195 20.0195 78.1895 19.8095 78.1895 19.2495C78.1895 18.5495 78.9595 18.3395 79.5895 18.3395C80.1495 18.3395 80.4295 18.4795 80.7795 18.6195C80.6395 19.4595 79.9395 20.0195 79.2395 20.0195ZM86.5895 15.3995L85.1195 19.1795H85.0495L83.5095 15.3995H82.1095L84.4195 20.7195L83.0895 23.6595H84.4195L87.9895 15.3995H86.5895ZM74.8295 20.9995H76.1595V12.2495H74.8295V20.9995Z" fill="white"/>
<path d="M7.27969 5.25043C7.06969 5.46043 6.92969 5.81043 6.92969 6.23043V21.7004C6.92969 22.1204 7.06969 22.4704 7.27969 22.6804L7.34969 22.7504L16.0297 14.0704V14.0004V13.9304L7.27969 5.25043Z" fill="url(#paint0_linear)"/>
<path d="M18.8993 17.0114L16.0293 14.1414V14.0014V13.9314L18.8993 11.0614L18.9693 11.1314L22.3993 13.0914C23.3793 13.6514 23.3793 14.5614 22.3993 15.1214L18.8993 17.0114Z" fill="url(#paint1_linear)"/>
<path d="M18.9693 16.9404L16.0293 14.0004L7.2793 22.7504C7.6293 23.1004 8.1193 23.1004 8.7493 22.8204L18.9693 16.9404Z" fill="url(#paint2_linear)"/>
<path d="M18.9693 11.0612L8.7493 5.25116C8.1193 4.90116 7.6293 4.97117 7.2793 5.32117L16.0293 14.0012L18.9693 11.0612Z" fill="url(#paint3_linear)"/>
<path opacity="0.2" d="M18.9013 16.8715L8.75125 22.6115C8.19125 22.9615 7.70125 22.8915 7.35125 22.6115L7.28125 22.6815L7.35125 22.7515C7.70125 23.0315 8.19125 23.1015 8.75125 22.7515L18.9013 16.8715Z" fill="black"/>
<path opacity="0.12" d="M7.28 22.6111C7.07 22.4011 7 22.0511 7 21.6311V21.7011C7 22.1211 7.14 22.4711 7.35 22.6811V22.6111H7.28Z" fill="black"/>
<path opacity="0.12" d="M22.3984 14.9104L18.8984 16.8704L18.9684 16.9404L22.3984 14.9804C22.8884 14.7004 23.0984 14.3504 23.0984 14.0004C23.0984 14.3504 22.8184 14.6304 22.3984 14.9104Z" fill="black"/>
<path opacity="0.25" d="M8.75 5.32111L22.4 13.0911C22.82 13.3711 23.1 13.6511 23.1 14.0011C23.1 13.6511 22.89 13.3011 22.4 13.0211L8.75 5.25111C7.77 4.69111 7 5.18111 7 6.30111V6.37111C7 5.25111 7.77 4.76111 8.75 5.32111Z" fill="white"/>
<path d="M29.4705 10.0099H28.9805V8.6099H29.4005C29.7505 8.3299 29.9605 7.7699 29.9605 6.9999V4.8999H32.7605V8.6099H33.2505V10.0099H32.7605V9.0999H29.5405V10.0099H29.4705ZM30.3805 7.05862C30.3805 7.68862 30.3105 8.1899 30.0305 8.6099H32.1305V5.4599H30.3805V6.9999V7.05862Z" fill="white" stroke="white" stroke-width="0.2" stroke-miterlimit="10"/>
<path d="M37.3799 8.5402C36.9599 8.9602 36.4699 9.1702 35.8399 9.1702C35.2099 9.1702 34.7199 8.9602 34.2999 8.5402C33.8799 8.1202 33.6699 7.6302 33.6699 7.0002C33.6699 6.3702 33.8799 5.8802 34.2999 5.4602C34.7199 5.0402 35.2099 4.8302 35.8399 4.8302C36.4699 4.8302 36.9599 5.0402 37.3799 5.4602C37.7999 5.8802 38.0099 6.3702 38.0099 7.0002C38.0099 7.6302 37.7999 8.1202 37.3799 8.5402ZM34.7199 8.1902C34.9999 8.4702 35.4199 8.6802 35.8399 8.6802C36.2599 8.6802 36.6799 8.5402 36.9599 8.1902C37.2399 7.9102 37.4499 7.4902 37.4499 7.0002C37.4499 6.5102 37.3099 6.0902 36.9599 5.8102C36.6799 5.5302 36.2599 5.3202 35.8399 5.3202C35.4199 5.3202 34.9999 5.4602 34.7199 5.8102C34.4399 6.0902 34.2299 6.5102 34.2299 7.0002C34.2299 7.4902 34.3699 7.9102 34.7199 8.1902Z" fill="white" stroke="white" stroke-width="0.2" stroke-miterlimit="10"/>
<path d="M40.7403 9.1702C40.1103 9.1702 39.6203 8.9602 39.2003 8.5402C38.7803 8.1202 38.5703 7.6302 38.5703 7.0002C38.5703 6.3702 38.7803 5.8802 39.2003 5.4602C39.6203 5.0402 40.1103 4.8302 40.7403 4.8302C41.3703 4.8302 41.8603 5.0402 42.2803 5.5302L41.9303 5.8802C41.6503 5.5302 41.2303 5.3202 40.7403 5.3202C40.2503 5.3202 39.9003 5.4602 39.5503 5.8102C39.2003 6.0902 39.0603 6.5102 39.0603 7.0002C39.0603 7.4902 39.2003 7.9102 39.5503 8.1902C39.8303 8.4702 40.2503 8.6802 40.7403 8.6802C41.2303 8.6802 41.6503 8.4702 42.0003 8.0502L42.3503 8.4002C42.1403 8.6102 41.9303 8.8202 41.6503 8.9602C41.3703 9.1002 41.0903 9.1702 40.7403 9.1702Z" fill="white" stroke="white" stroke-width="0.2" stroke-miterlimit="10"/>
<path d="M44.5898 9.0999H44.0298V5.3899H42.8398V4.8999H45.7098V5.3899H44.5198V9.0999H44.5898Z" fill="white" stroke="white" stroke-width="0.2" stroke-miterlimit="10"/>
<path d="M49.4205 4.9699L47.8105 8.46991C47.6005 8.95991 47.2505 9.23991 46.8305 9.23991C46.6905 9.23991 46.5505 9.23991 46.4105 9.16991L46.5505 8.67991C46.6205 8.74991 46.7605 8.74991 46.8305 8.74991C46.9705 8.74991 47.0405 8.74991 47.1105 8.67991C47.1805 8.60991 47.2505 8.53991 47.3205 8.39991L47.4605 8.04991L46.0605 4.96991H46.6905L47.7405 7.34991L48.7205 4.96991L49.4205 4.9699Z" fill="white" stroke="white" stroke-width="0.2" stroke-miterlimit="10"/>
<path d="M50.0508 9.0999V4.8999H53.0608V9.0999H52.5008V5.3899H50.5408V9.0999H50.0508Z" fill="white" stroke="white" stroke-width="0.2" stroke-miterlimit="10"/>
<path d="M54.041 9.0999V4.8999H54.601V6.7199H56.701V4.8999H57.261V9.0999H56.701V7.2099H54.601V9.0999H54.041Z" fill="white" stroke="white" stroke-width="0.2" stroke-miterlimit="10"/>
<path d="M61.6709 8.5402C61.2509 8.9602 60.7609 9.1702 60.1309 9.1702C59.5009 9.1702 59.0109 8.9602 58.5909 8.5402C58.1709 8.1202 57.9609 7.6302 57.9609 7.0002C57.9609 6.3702 58.1709 5.8802 58.5909 5.4602C59.0109 5.0402 59.5009 4.8302 60.1309 4.8302C60.7609 4.8302 61.2509 5.0402 61.6709 5.4602C62.0909 5.8802 62.3009 6.3702 62.3009 7.0002C62.2309 7.6302 62.0209 8.1202 61.6709 8.5402ZM58.9409 8.1902C59.2209 8.4702 59.6409 8.6802 60.0609 8.6802C60.4809 8.6802 60.9009 8.5402 61.1809 8.1902C61.4609 7.9102 61.6709 7.4902 61.6709 7.0002C61.6709 6.5102 61.5309 6.0902 61.1809 5.8102C60.9009 5.5302 60.4809 5.3202 60.0609 5.3202C59.6409 5.3202 59.2209 5.4602 58.9409 5.8102C58.6609 6.0902 58.4509 6.5102 58.4509 7.0002C58.4509 7.4902 58.6609 7.9102 58.9409 8.1902Z" fill="white" stroke="white" stroke-width="0.2" stroke-miterlimit="10"/>
<path d="M64.4707 9.0999V4.8999H66.0107C66.3607 4.8999 66.6407 5.0399 66.8507 5.2499C67.0607 5.4599 67.2007 5.7399 67.2007 6.0899C67.2007 6.2999 67.1307 6.4399 67.0607 6.6499C66.9907 6.7899 66.8507 6.9299 66.6407 6.9999C66.8507 7.0699 66.9907 7.2099 67.1307 7.3499C67.2707 7.4899 67.3407 7.6999 67.3407 7.9799C67.3407 8.3299 67.2007 8.6099 66.9907 8.8199C66.7107 9.0299 66.4307 9.1699 66.0807 9.1699H64.4707V9.0999ZM65.0307 6.7199H66.0107C66.2207 6.7199 66.3607 6.6499 66.5007 6.5099C66.6407 6.3699 66.7107 6.2299 66.7107 6.0899C66.7107 5.9499 66.6407 5.8099 66.5007 5.6699C66.3607 5.5299 66.2207 5.4599 66.0107 5.4599H65.0307V6.7199ZM65.0307 8.6099H66.1507C66.3607 8.6099 66.5007 8.5399 66.6407 8.3999C66.7807 8.2599 66.8507 8.1199 66.8507 7.9099C66.8507 7.7699 66.7807 7.5599 66.6407 7.4199C66.5007 7.2799 66.3607 7.2099 66.1507 7.2099H65.1007V8.6099H65.0307Z" fill="white" stroke="white" stroke-width="0.2" stroke-miterlimit="10"/>
<defs>
<linearGradient id="paint0_linear" x1="15.2595" y1="6.09722" x2="3.5118" y2="17.8449" gradientUnits="userSpaceOnUse">
<stop stop-color="#00A0FF"/>
<stop offset="0.00657445" stop-color="#00A1FF"/>
<stop offset="0.2601" stop-color="#00BEFF"/>
<stop offset="0.5122" stop-color="#00D2FF"/>
<stop offset="0.7604" stop-color="#00DFFF"/>
<stop offset="1" stop-color="#00E3FF"/>
</linearGradient>
<linearGradient id="paint1_linear" x1="23.6834" y1="14.0024" x2="6.74555" y2="14.0024" gradientUnits="userSpaceOnUse">
<stop stop-color="#FFE000"/>
<stop offset="0.4087" stop-color="#FFBD00"/>
<stop offset="0.7754" stop-color="#FFA500"/>
<stop offset="1" stop-color="#FF9C00"/>
</linearGradient>
<linearGradient id="paint2_linear" x1="17.3782" y1="15.6077" x2="1.44739" y2="31.5385" gradientUnits="userSpaceOnUse">
<stop stop-color="#FF3A44"/>
<stop offset="1" stop-color="#C31162"/>
</linearGradient>
<linearGradient id="paint3_linear" x1="5.10741" y1="0.124505" x2="12.2212" y2="7.23825" gradientUnits="userSpaceOnUse">
<stop stop-color="#32A071"/>
<stop offset="0.0685" stop-color="#2DA771"/>
<stop offset="0.4762" stop-color="#15CF74"/>
<stop offset="0.8009" stop-color="#06E775"/>
<stop offset="1" stop-color="#00F076"/>
</linearGradient>
</defs>
</svg>
